<?xml version="1.0" encoding="UTF-8" standalone="no"?>
<!DOCTYPE svg PUBLIC "-//W3C//DTD SVG 1.1//EN"
 "http://www.w3.org/Graphics/SVG/1.1/DTD/svg11.dtd">
<!-- Generated by graphviz version 2.40.1 (20161225.0304)
 -->
<!-- Title: G Pages: 1 -->
<svg width="200pt" height="188pt"
 viewBox="0.00 0.00 200.23 188.00" xmlns="http://www.w3.org/2000/svg" xmlns:xlink="http://www.w3.org/1999/xlink">
<g id="graph0" class="graph" transform="scale(1 1) rotate(0) translate(4 184)">
<title>G</title>
<polygon fill="#ffffff" stroke="transparent" points="-4,4 -4,-184 196.2272,-184 196.2272,4 -4,4"/>
<!-- start -->
<g id="node1" class="node">
<title>start</title>
<ellipse fill="none" stroke="#000000" cx="85.2353" cy="-162" rx="27.8228" ry="18"/>
<text text-anchor="middle" x="85.2353" y="-157.8" font-family="Times,serif" font-size="14.00" fill="#000000">start</text>
</g>
<!-- result -->
<g id="node2" class="node">
<title>result</title>
<ellipse fill="none" stroke="#000000" cx="85.2353" cy="-90" rx="32.4788" ry="18"/>
<text text-anchor="middle" x="85.2353" y="-85.8" font-family="Times,serif" font-size="14.00" fill="#000000">result</text>
</g>
<!-- start&#45;&gt;result -->
<g id="edge1" class="edge">
<title>start&#45;&gt;result</title>
<path fill="none" stroke="#000000" d="M85.2353,-143.8314C85.2353,-136.131 85.2353,-126.9743 85.2353,-118.4166"/>
<polygon fill="#000000" stroke="#000000" points="88.7354,-118.4132 85.2353,-108.4133 81.7354,-118.4133 88.7354,-118.4132"/>
</g>
<!-- failure -->
<g id="node3" class="node">
<title>failure</title>
<ellipse fill="none" stroke="#000000" cx="36.2353" cy="-18" rx="36.4722" ry="18"/>
<text text-anchor="middle" x="36.2353" y="-13.8" font-family="Times,serif" font-size="14.00" fill="#000000">failure</text>
</g>
<!-- start&#45;&gt;failure -->
<g id="edge2" class="edge">
<title>start&#45;&gt;failure</title>
<path fill="none" stroke="#000000" d="M70.0522,-146.9204C60.8916,-136.817 49.9249,-122.7113 44.2353,-108 36.6556,-88.4013 34.8179,-64.6704 34.7883,-46.4982"/>
<polygon fill="#000000" stroke="#000000" points="38.2919,-46.3088 34.9592,-36.2518 31.2929,-46.1921 38.2919,-46.3088"/>
</g>
<!-- success -->
<g id="node4" class="node">
<title>success</title>
<ellipse fill="none" stroke="#000000" cx="152.2353" cy="-18" rx="39.9838" ry="18"/>
<text text-anchor="middle" x="152.2353" y="-13.8" font-family="Times,serif" font-size="14.00" fill="#000000">success</text>
</g>
<!-- start&#45;&gt;success -->
<g id="edge3" class="edge">
<title>start&#45;&gt;success</title>
<path fill="none" stroke="#000000" d="M105.2923,-149.52C118.7825,-139.9428 135.6201,-125.4266 144.2353,-108 153.6497,-88.9569 155.3425,-64.8762 154.8486,-46.4165"/>
<polygon fill="#000000" stroke="#000000" points="158.3369,-46.0925 154.3469,-36.2777 151.3455,-46.4385 158.3369,-46.0925"/>
</g>
<!-- result&#45;&gt;result -->
<g id="edge4" class="edge">
<title>result&#45;&gt;result</title>
<path fill="none" stroke="#000000" d="M108.6064,-102.6563C122.5765,-105.4688 135.7247,-101.25 135.7247,-90 135.7247,-81.5625 128.3288,-77.0801 118.7373,-76.5527"/>
<polygon fill="#000000" stroke="#000000" points="118.3036,-73.0759 108.6064,-77.3438 118.8486,-80.0546 118.3036,-73.0759"/>
</g>
<!-- result&#45;&gt;failure -->
<g id="edge5" class="edge">
<title>result&#45;&gt;failure</title>
<path fill="none" stroke="#000000" d="M73.623,-72.937C67.7294,-64.277 60.4448,-53.5731 53.8758,-43.9207"/>
<polygon fill="#000000" stroke="#000000" points="56.6245,-41.7386 48.1047,-35.4407 50.8375,-45.677 56.6245,-41.7386"/>
</g>
<!-- result&#45;&gt;success -->
<g id="edge6" class="edge">
<title>result&#45;&gt;success</title>
<path fill="none" stroke="#000000" d="M100.4387,-73.6621C109.0533,-64.4046 119.9965,-52.6447 129.6026,-42.3217"/>
<polygon fill="#000000" stroke="#000000" points="132.3771,-44.4779 136.6272,-34.7729 127.2526,-39.7093 132.3771,-44.4779"/>
</g>
</g>
</svg>
